# Blender 5.2.1 LTS
# www.blender.org
mtllib Billboard_3_v2.mtl
o Billboard_3
v -4.799999 10.600003 -0.300000
v -4.799999 10.600003 0.300000
v -0.300000 10.600003 0.300000
v -0.300000 10.600003 -0.300000
v 4.800001 10.600003 -0.300000
v 4.800001 10.600003 0.300000
v -4.799999 5.199999 0.300000
v -4.799999 5.199999 -0.300000
v -0.300000 5.199999 -0.300000
v -0.300000 5.199999 0.300000
v 4.800001 5.199999 0.300000
v 4.800001 5.199999 -0.300000
v 0.300000 10.600003 0.300000
v 0.300000 10.600003 -0.300000
v 0.300000 5.199999 0.300000
v 0.300000 5.199999 -0.300000
v 0.300000 5.000000 0.300000
v -0.300000 5.000000 0.300000
v 0.300000 5.000000 -0.300000
v 4.800001 5.000000 -0.300000
v 4.800001 5.000000 0.300000
v -4.799999 5.000000 -0.300000
v -0.300000 5.000000 -0.300000
v -4.799999 5.000000 0.300000
v 0.300000 0.000000 0.300000
v -0.300000 0.000000 0.300000
v -0.300000 0.000000 -0.300000
v 0.300000 0.000000 -0.300000
v 0.300000 5.199999 0.500000
v -0.300000 5.199999 0.500000
v -4.799999 5.199999 0.500000
v 4.800001 5.199999 0.500000
v 0.300000 5.000000 0.500000
v -0.300000 5.000000 0.500000
v -4.799999 5.000000 0.500000
v 4.800001 5.000000 0.500000
v 0.300000 5.199999 -0.500000
v 4.800001 5.199999 -0.500000
v -4.799999 5.199999 -0.500000
v -0.300000 5.199999 -0.500000
v -0.300000 5.000000 -0.500000
v 0.300000 5.000000 -0.500000
v 4.800001 5.000000 -0.500000
v -4.799999 5.000000 -0.500000
vn -0.0000 -0.0000 -1.0000
vn -1.0000 -0.0000 -0.0000
vn -0.0000 -0.0000 1.0000
vn 1.0000 -0.0000 -0.0000
vn -0.0000 1.0000 -0.0000
vn -0.0000 -1.0000 -0.0000
vt 1.000000 0.000000
vt 1.000000 1.000000
vt 0.531250 1.000000
vt 0.531250 0.000000
vt 0.000042 0.999958
vt 0.000042 0.735274
vt 0.016585 0.735274
vt 0.016585 0.999958
vt 0.531250 0.000000
vt 0.531250 1.000000
vt 0.000000 0.000000
vt 0.468750 0.000000
vt 0.468750 1.000000
vt 0.000000 1.000000
vt 0.000042 0.000042
vt 0.016585 0.000042
vt 0.016585 0.264726
vt 0.000042 0.264726
vt 0.468750 0.000000
vt 0.468750 1.000000
vt 0.016585 0.485295
vt 0.000042 0.485295
vt 0.016585 0.514705
vt 0.000042 0.514705
vt 0.049754 0.230415
vt 0.049754 0.009845
vt 0.055268 0.009845
vt 0.055268 0.230415
vt 0.033211 0.009845
vt 0.033211 0.230415
vt 0.027697 0.230415
vt 0.027697 0.009845
vt 0.066297 0.230415
vt 0.066297 0.259824
vt 0.060782 0.259824
vt 0.060782 0.230415
vt 0.099466 0.274529
vt 0.082923 0.274529
vt 0.082923 0.029451
vt 0.099466 0.029451
vt 0.049754 0.259824
vt 0.049754 0.480394
vt 0.033211 0.480394
vt 0.033211 0.259824
vt 0.055268 0.259824
vt 0.016669 0.259824
vt 0.016669 0.230415
vt 0.022183 0.230415
vt 0.022183 0.259824
vt 0.033211 0.000042
vt 0.049754 0.000042
vt 0.049754 0.490197
vt 0.033211 0.490197
vt 0.027697 0.259824
vt 0.116009 0.029451
vt 0.099466 0.000042
vt 0.116009 0.000042
vt 0.116009 0.274529
vt 0.132551 0.274529
vt 0.132551 0.029451
vt 0.066381 0.274529
vt 0.066381 0.029451
vt 0.022183 0.009845
vt 0.022183 0.480394
vt 0.027697 0.480394
vt 0.016669 0.009845
vt 0.027697 0.000042
vt 0.027697 0.490197
vt 0.016669 0.480394
vt 0.060782 0.009845
vt 0.060782 0.480394
vt 0.055268 0.480394
vt 0.055268 0.000042
vt 0.066297 0.009845
vt 0.066297 0.480394
vt 0.055268 0.490197
s 0
usemtl Traffic_Pole_mat
f 7/5/2 2/6/2 1/7/2 8/8/2
f 11/15/4 12/16/4 5/17/4 6/18/4
f 14/21/5 13/22/5 6/18/5 5/17/5
f 4/23/5 3/24/5 13/22/5 14/21/5
f 4/23/5 1/7/5 2/6/5 3/24/5
f 23/25/6 22/26/6 44/27/6 41/28/6
f 24/29/6 18/30/6 34/31/6 35/32/6
f 9/33/5 16/34/5 37/35/5 40/36/5
f 22/26/6 23/25/6 18/30/6 24/29/6
f 18/37/2 23/38/2 27/39/2 26/40/2
f 19/41/6 20/42/6 21/43/6 17/44/6
f 19/41/6 23/25/6 41/28/6 42/45/6
f 15/46/5 10/47/5 30/48/5 29/49/5
f 7/50/2 8/51/2 22/26/2 24/29/2
f 12/52/4 11/53/4 21/43/4 20/42/4
f 18/30/6 17/44/6 33/54/6 34/31/6
f 25/55/6 26/40/6 27/56/6 28/57/6
f 17/58/3 18/37/3 26/40/3 25/55/3
f 19/59/4 17/58/4 25/55/4 28/60/4
f 23/38/1 19/61/1 28/62/1 27/39/1
f 30/48/3 31/63/3 35/32/3 34/31/3
f 32/64/3 29/49/3 33/54/3 36/65/3
f 29/49/3 30/48/3 34/31/3 33/54/3
f 10/47/5 7/66/5 31/63/5 30/48/5
f 7/50/2 24/29/2 35/32/2 31/67/2
f 17/44/6 21/43/6 36/65/6 33/54/6
f 21/43/4 11/53/4 32/68/4 36/65/4
f 11/69/5 15/46/5 29/49/5 32/64/5
f 39/70/1 40/36/1 41/28/1 44/27/1
f 40/36/1 37/35/1 42/45/1 41/28/1
f 37/35/1 38/71/1 43/72/1 42/45/1
f 22/26/2 8/51/2 39/73/2 44/27/2
f 20/42/6 19/41/6 42/45/6 43/72/6
f 8/74/5 9/33/5 40/36/5 39/70/5
f 16/34/5 12/75/5 38/71/5 37/35/5
f 12/52/4 20/42/4 43/72/4 38/76/4
usemtl Billboard_Ad3_mat
f 8/1/1 1/2/1 4/3/1 9/4/1
f 15/9/3 11/1/3 6/2/3 13/10/3
f 12/11/1 16/12/1 14/13/1 5/14/1
f 16/12/1 9/4/1 4/3/1 14/13/1
f 10/19/3 3/20/3 2/14/3 7/11/3
f 10/19/3 15/9/3 13/10/3 3/20/3
