# Blender 5.2.1 LTS
# www.blender.org
mtllib Billboard_2_v2.mtl
o Billboard_2
v -2.699996 12.800023 -0.300000
v -2.699996 12.800023 0.300000
v -0.299999 12.800023 0.300000
v -0.299999 12.800023 -0.300000
v 2.700007 12.800023 -0.300000
v 2.700007 12.800023 0.300000
v -2.699996 3.199999 0.300000
v -2.699996 3.199999 -0.300000
v -0.299999 3.199999 -0.300000
v -0.299999 3.199999 0.300000
v 2.700007 3.199999 0.300000
v 2.700007 3.199999 -0.300000
v 0.299999 12.800023 0.300000
v 0.299999 12.800023 -0.300000
v 0.299999 3.199999 0.300000
v 0.299999 3.199999 -0.300000
v 0.300000 3.000000 0.300000
v -0.300000 3.000000 0.300000
v 0.300000 3.000000 -0.300000
v 2.700006 3.000000 -0.300000
v 2.700006 3.000000 0.300000
v -2.699997 3.000000 -0.300000
v -0.300000 3.000000 -0.300000
v -2.699997 3.000000 0.300000
v 0.300000 0.000000 0.300000
v -0.300000 0.000000 0.300000
v -0.300000 0.000000 -0.300000
v 0.300000 0.000000 -0.300000
v 0.299999 3.199999 0.500000
v -0.299999 3.199999 0.500000
v -2.699996 3.199999 0.500000
v 2.700007 3.199999 0.500000
v 0.300000 3.000000 0.500000
v -0.300000 3.000000 0.500000
v -2.699997 3.000000 0.500000
v 2.700006 3.000000 0.500000
v 0.299999 3.199999 -0.500000
v 2.700007 3.199999 -0.500000
v -2.699996 3.199999 -0.500000
v -0.299999 3.199999 -0.500000
v -0.300000 3.000000 -0.500000
v 0.300000 3.000000 -0.500000
v 2.700006 3.000000 -0.500000
v -2.699997 3.000000 -0.500000
vn -0.0000 -0.0000 -1.0000
vn -1.0000 -0.0000 -0.0000
vn -0.0000 -0.0000 1.0000
vn 1.0000 -0.0000 -0.0000
vn -0.0000 1.0000 -0.0000
vn -0.0000 -1.0000 -0.0000
vt 1.000000 0.000000
vt 1.000000 1.000000
vt 0.555556 1.000000
vt 0.555556 0.000000
vt 0.043410 0.000054
vt 0.043410 0.390256
vt 0.000054 0.390256
vt 0.000054 0.000054
vt 0.555554 0.000000
vt 0.555554 1.000000
vt 0.000000 0.000000
vt 0.444446 0.000000
vt 0.444446 1.000000
vt 0.000000 1.000000
vt 0.043410 0.999946
vt 0.000055 0.999946
vt 0.000054 0.609744
vt 0.043410 0.609744
vt 0.444444 0.000000
vt 0.444444 1.000000
vt 0.000054 0.512194
vt 0.043410 0.512194
vt 0.000054 0.487806
vt 0.043410 0.487806
vt 0.130230 0.105733
vt 0.130230 0.008183
vt 0.144682 0.008183
vt 0.144682 0.105733
vt 0.086874 0.008183
vt 0.086874 0.105733
vt 0.072422 0.105733
vt 0.072422 0.008183
vt 0.173585 0.105733
vt 0.173585 0.130121
vt 0.159134 0.130121
vt 0.159134 0.105733
vt 0.260405 0.146380
vt 0.217050 0.146380
vt 0.217050 0.024442
vt 0.260405 0.024442
vt 0.130230 0.130121
vt 0.130230 0.227671
vt 0.086874 0.227671
vt 0.086874 0.130121
vt 0.144682 0.130121
vt 0.043519 0.130121
vt 0.043519 0.105733
vt 0.057971 0.105733
vt 0.057971 0.130121
vt 0.086874 0.000054
vt 0.130230 0.000054
vt 0.130230 0.235801
vt 0.086874 0.235801
vt 0.072422 0.130121
vt 0.303761 0.024442
vt 0.260405 0.000054
vt 0.303761 0.000054
vt 0.303761 0.146380
vt 0.347117 0.146380
vt 0.347117 0.024442
vt 0.173694 0.146380
vt 0.173694 0.024442
vt 0.057971 0.008183
vt 0.057971 0.227671
vt 0.072422 0.227671
vt 0.043519 0.008183
vt 0.072422 0.000054
vt 0.072422 0.235801
vt 0.043519 0.227671
vt 0.159134 0.008183
vt 0.159134 0.227671
vt 0.144682 0.227671
vt 0.144682 0.000054
vt 0.173586 0.008183
vt 0.173585 0.227671
vt 0.144682 0.235801
s 0
usemtl Traffic_Pole_mat
f 7/5/2 2/6/2 1/7/2 8/8/2
f 11/15/4 12/16/4 5/17/4 6/18/4
f 14/21/5 13/22/5 6/18/5 5/17/5
f 4/23/5 3/24/5 13/22/5 14/21/5
f 4/23/5 1/7/5 2/6/5 3/24/5
f 23/25/6 22/26/6 44/27/6 41/28/6
f 24/29/6 18/30/6 34/31/6 35/32/6
f 9/33/5 16/34/5 37/35/5 40/36/5
f 22/26/6 23/25/6 18/30/6 24/29/6
f 18/37/2 23/38/2 27/39/2 26/40/2
f 19/41/6 20/42/6 21/43/6 17/44/6
f 19/41/6 23/25/6 41/28/6 42/45/6
f 15/46/5 10/47/5 30/48/5 29/49/5
f 7/50/2 8/51/2 22/26/2 24/29/2
f 12/52/4 11/53/4 21/43/4 20/42/4
f 18/30/6 17/44/6 33/54/6 34/31/6
f 25/55/6 26/40/6 27/56/6 28/57/6
f 17/58/3 18/37/3 26/40/3 25/55/3
f 19/59/4 17/58/4 25/55/4 28/60/4
f 23/38/1 19/61/1 28/62/1 27/39/1
f 30/48/3 31/63/3 35/32/3 34/31/3
f 32/64/3 29/49/3 33/54/3 36/65/3
f 29/49/3 30/48/3 34/31/3 33/54/3
f 10/47/5 7/66/5 31/63/5 30/48/5
f 7/50/2 24/29/2 35/32/2 31/67/2
f 17/44/6 21/43/6 36/65/6 33/54/6
f 21/43/4 11/53/4 32/68/4 36/65/4
f 11/69/5 15/46/5 29/49/5 32/64/5
f 39/70/1 40/36/1 41/28/1 44/27/1
f 40/36/1 37/35/1 42/45/1 41/28/1
f 37/35/1 38/71/1 43/72/1 42/45/1
f 22/26/2 8/51/2 39/73/2 44/27/2
f 20/42/6 19/41/6 42/45/6 43/72/6
f 8/74/5 9/33/5 40/36/5 39/70/5
f 16/34/5 12/75/5 38/71/5 37/35/5
f 12/52/4 20/42/4 43/72/4 38/76/4
usemtl Billboard_Ad2_mat
f 8/1/1 1/2/1 4/3/1 9/4/1
f 15/9/3 11/1/3 6/2/3 13/10/3
f 12/11/1 16/12/1 14/13/1 5/14/1
f 16/12/1 9/4/1 4/3/1 14/13/1
f 10/19/3 3/20/3 2/14/3 7/11/3
f 10/19/3 15/9/3 13/10/3 3/20/3
